<svg xmlns="http://www.w3.org/2000/svg" _ngcontent-ng-c3852773046="" class="gv-chart gantt" height="819" width="3780"><g class="grid"><g><rect x="0" y="85" width="3780" height="52" class="grid-row"/><rect x="0" y="137" width="3780" height="52" class="grid-row"/><rect x="0" y="189" width="3780" height="52" class="grid-row"/><rect x="0" y="241" width="3780" height="52" class="grid-row"/><rect x="0" y="293" width="3780" height="52" class="grid-row"/><rect x="0" y="345" width="3780" height="52" class="grid-row"/><rect x="0" y="397" width="3780" height="52" class="grid-row"/><rect x="0" y="449" width="3780" height="52" class="grid-row"/><rect x="0" y="501" width="3780" height="52" class="grid-row"/><rect x="0" y="553" width="3780" height="52" class="grid-row"/><rect x="0" y="605" width="3780" height="52" class="grid-row"/><rect x="0" y="657" width="3780" height="52" class="grid-row"/><rect x="0" y="709" width="3780" height="52" class="grid-row"/><rect x="0" y="761" width="3780" height="52" class="grid-row"/><rect x="0" y="813" width="3780" height="52" class="grid-row"/></g><rect x="100" y="85" width="20" height="734" class="holiday-highlight 2026-03-07" style="fill: var(--g-weekend-highlight-color);"/><rect x="120" y="85" width="20" height="734" class="holiday-highlight 2026-03-08" style="fill: var(--g-weekend-highlight-color);"/><rect x="240" y="85" width="20" height="734" class="holiday-highlight 2026-03-14" style="fill: var(--g-weekend-highlight-color);"/><rect x="260" y="85" width="20" height="734" class="holiday-highlight 2026-03-15" style="fill: var(--g-weekend-highlight-color);"/><rect x="380" y="85" width="20" height="734" class="holiday-highlight 2026-03-21" style="fill: var(--g-weekend-highlight-color);"/><rect x="400" y="85" width="20" height="734" class="holiday-highlight 2026-03-22" style="fill: var(--g-weekend-highlight-color);"/><rect x="520" y="85" width="20" height="734" class="holiday-highlight 2026-03-28" style="fill: var(--g-weekend-highlight-color);"/><rect x="540" y="85" width="20" height="734" class="holiday-highlight 2026-03-29" style="fill: var(--g-weekend-highlight-color);"/><rect x="660" y="85" width="20" height="734" class="holiday-highlight 2026-04-04" style="fill: var(--g-weekend-highlight-color);"/><rect x="680" y="85" width="20" height="734" class="holiday-highlight 2026-04-05" style="fill: var(--g-weekend-highlight-color);"/><rect x="800" y="85" width="20" height="734" class="holiday-highlight 2026-04-11" style="fill: var(--g-weekend-highlight-color);"/><rect x="820" y="85" width="20" height="734" class="holiday-highlight 2026-04-12" style="fill: var(--g-weekend-highlight-color);"/><rect x="940" y="85" width="20" height="734" class="holiday-highlight 2026-04-18" style="fill: var(--g-weekend-highlight-color);"/><rect x="960" y="85" width="20" height="734" class="holiday-highlight 2026-04-19" style="fill: var(--g-weekend-highlight-color);"/><rect x="1080" y="85" width="20" height="734" class="holiday-highlight 2026-04-25" style="fill: var(--g-weekend-highlight-color);"/><rect x="1100" y="85" width="20" height="734" class="holiday-highlight 2026-04-26" style="fill: var(--g-weekend-highlight-color);"/><rect x="1220" y="85" width="20" height="734" class="holiday-highlight 2026-05-02" style="fill: var(--g-weekend-highlight-color);"/><rect x="1240" y="85" width="20" height="734" class="holiday-highlight 2026-05-03" style="fill: var(--g-weekend-highlight-color);"/><rect x="1360" y="85" width="20" height="734" class="holiday-highlight 2026-05-09" style="fill: var(--g-weekend-highlight-color);"/><rect x="1380" y="85" width="20" height="734" class="holiday-highlight 2026-05-10" style="fill: var(--g-weekend-highlight-color);"/><rect x="1500" y="85" width="20" height="734" class="holiday-highlight 2026-05-16" style="fill: var(--g-weekend-highlight-color);"/><rect x="1520" y="85" width="20" height="734" class="holiday-highlight 2026-05-17" style="fill: var(--g-weekend-highlight-color);"/><rect x="1640" y="85" width="20" height="734" class="holiday-highlight 2026-05-23" style="fill: var(--g-weekend-highlight-color);"/><rect x="1660" y="85" width="20" height="734" class="holiday-highlight 2026-05-24" style="fill: var(--g-weekend-highlight-color);"/><rect x="1780" y="85" width="20" height="734" class="holiday-highlight 2026-05-30" style="fill: var(--g-weekend-highlight-color);"/><rect x="1800" y="85" width="20" height="734" class="holiday-highlight 2026-05-31" style="fill: var(--g-weekend-highlight-color);"/><rect x="1920" y="85" width="20" height="734" class="holiday-highlight 2026-06-06" style="fill: var(--g-weekend-highlight-color);"/><rect x="1940" y="85" width="20" height="734" class="holiday-highlight 2026-06-07" style="fill: var(--g-weekend-highlight-color);"/><rect x="2060" y="85" width="20" height="734" class="holiday-highlight 2026-06-13" style="fill: var(--g-weekend-highlight-color);"/><rect x="2080" y="85" width="20" height="734" class="holiday-highlight 2026-06-14" style="fill: var(--g-weekend-highlight-color);"/><rect x="2200" y="85" width="20" height="734" class="holiday-highlight 2026-06-20" style="fill: var(--g-weekend-highlight-color);"/><rect x="2220" y="85" width="20" height="734" class="holiday-highlight 2026-06-21" style="fill: var(--g-weekend-highlight-color);"/><rect x="2340" y="85" width="20" height="734" class="holiday-highlight 2026-06-27" style="fill: var(--g-weekend-highlight-color);"/><rect x="2360" y="85" width="20" height="734" class="holiday-highlight 2026-06-28" style="fill: var(--g-weekend-highlight-color);"/><rect x="2480" y="85" width="20" height="734" class="holiday-highlight 2026-07-04" style="fill: var(--g-weekend-highlight-color);"/><rect x="2500" y="85" width="20" height="734" class="holiday-highlight 2026-07-05" style="fill: var(--g-weekend-highlight-color);"/><rect x="2620" y="85" width="20" height="734" class="holiday-highlight 2026-07-11" style="fill: var(--g-weekend-highlight-color);"/><rect x="2640" y="85" width="20" height="734" class="holiday-highlight 2026-07-12" style="fill: var(--g-weekend-highlight-color);"/><rect x="2760" y="85" width="20" height="734" class="holiday-highlight 2026-07-18" style="fill: var(--g-weekend-highlight-color);"/><rect x="2780" y="85" width="20" height="734" class="holiday-highlight 2026-07-19" style="fill: var(--g-weekend-highlight-color);"/><rect x="2900" y="85" width="20" height="734" class="holiday-highlight 2026-07-25" style="fill: var(--g-weekend-highlight-color);"/><rect x="2920" y="85" width="20" height="734" class="holiday-highlight 2026-07-26" style="fill: var(--g-weekend-highlight-color);"/><rect x="3040" y="85" width="20" height="734" class="holiday-highlight 2026-08-01" style="fill: var(--g-weekend-highlight-color);"/><rect x="3060" y="85" width="20" height="734" class="holiday-highlight 2026-08-02" style="fill: var(--g-weekend-highlight-color);"/><rect x="3180" y="85" width="20" height="734" class="holiday-highlight 2026-08-08" style="fill: var(--g-weekend-highlight-color);"/><rect x="3200" y="85" width="20" height="734" class="holiday-highlight 2026-08-09" style="fill: var(--g-weekend-highlight-color);"/><rect x="3320" y="85" width="20" height="734" class="holiday-highlight 2026-08-15" style="fill: var(--g-weekend-highlight-color);"/><rect x="3340" y="85" width="20" height="734" class="holiday-highlight 2026-08-16" style="fill: var(--g-weekend-highlight-color);"/><rect x="3460" y="85" width="20" height="734" class="holiday-highlight 2026-08-22" style="fill: var(--g-weekend-highlight-color);"/><rect x="3480" y="85" width="20" height="734" class="holiday-highlight 2026-08-23" style="fill: var(--g-weekend-highlight-color);"/><rect x="3600" y="85" width="20" height="734" class="holiday-highlight 2026-08-29" style="fill: var(--g-weekend-highlight-color);"/><rect x="3620" y="85" width="20" height="734" class="holiday-highlight 2026-08-30" style="fill: var(--g-weekend-highlight-color);"/><pattern id="diagonalHatch" patternUnits="userSpaceOnUse" width="4" height="4">
          <path d="M-1,1 l2,-2&#10;                   M0,4 l4,-4&#10;                   M3,5 l2,-2" style="stroke:grey; stroke-width:0.3"/>
        </pattern><g class="lines_layer"><line x1="0" y1="137" x2="3780" y2="137" class="row-line"/><line x1="0" y1="189" x2="3780" y2="189" class="row-line"/><line x1="0" y1="241" x2="3780" y2="241" class="row-line"/><line x1="0" y1="293" x2="3780" y2="293" class="row-line"/><line x1="0" y1="345" x2="3780" y2="345" class="row-line"/><line x1="0" y1="397" x2="3780" y2="397" class="row-line"/><line x1="0" y1="449" x2="3780" y2="449" class="row-line"/><line x1="0" y1="501" x2="3780" y2="501" class="row-line"/><line x1="0" y1="553" x2="3780" y2="553" class="row-line"/><line x1="0" y1="605" x2="3780" y2="605" class="row-line"/><line x1="0" y1="657" x2="3780" y2="657" class="row-line"/><line x1="0" y1="709" x2="3780" y2="709" class="row-line"/><line x1="0" y1="761" x2="3780" y2="761" class="row-line"/><line x1="0" y1="813" x2="3780" y2="813" class="row-line"/><line x1="0" y1="865" x2="3780" y2="865" class="row-line"/></g><path d="M 0 85 v 734" class="tick thick"/><path d="M 140 85 v 734" class="tick"/><path d="M 280 85 v 734" class="tick"/><path d="M 420 85 v 734" class="tick"/><path d="M 560 85 v 734" class="tick"/><path d="M 700 85 v 734" class="tick thick"/><path d="M 840 85 v 734" class="tick"/><path d="M 980 85 v 734" class="tick"/><path d="M 1120 85 v 734" class="tick"/><path d="M 1260 85 v 734" class="tick thick"/><path d="M 1400 85 v 734" class="tick"/><path d="M 1540 85 v 734" class="tick"/><path d="M 1680 85 v 734" class="tick"/><path d="M 1820 85 v 734" class="tick thick"/><path d="M 1960 85 v 734" class="tick"/><path d="M 2100 85 v 734" class="tick"/><path d="M 2240 85 v 734" class="tick"/><path d="M 2380 85 v 734" class="tick"/><path d="M 2520 85 v 734" class="tick thick"/><path d="M 2660 85 v 734" class="tick"/><path d="M 2800 85 v 734" class="tick"/><path d="M 2940 85 v 734" class="tick"/><path d="M 3080 85 v 734" class="tick thick"/><path d="M 3220 85 v 734" class="tick"/><path d="M 3360 85 v 734" class="tick"/><path d="M 3500 85 v 734" class="tick"/><path d="M 3640 85 v 734" class="tick"/></g><g class="arrow"/><g class="progress"/><g class="bar"><g class="bar-wrapper estado-todo" data-id="g_ffa7adae_a420_46c5_9af5_2cff78a444ed"><g class="bar-group"><rect x="600" y="93" width="100" height="36" rx="3" ry="3" class="bar"><animate attributeName="width" from="0" to="100" dur="0.4s" begin="0.1s" calcMode="spline" values="0;100" keyTimes="0; 1" keySplines="0 0 .58 1"/></rect><rect x="600" y="93" width="0" height="36" rx="5" ry="5" class="bar-progress"><animate attributeName="width" from="0" to="0" dur="0.4s" begin="0.1s" calcMode="spline" values="0;0" keyTimes="0; 1" keySplines="0 0 .58 1"/></rect><text x="705" y="111" class="bar-label big">Adquirir licencias ERP por usuario [Float: 117d]</text></g><g class="handle-group"><rect x="698.5" y="102" width="3" height="18" rx="2" ry="2" class="handle right"/><rect x="598.5" y="102" width="3" height="18" rx="2" ry="2" class="handle left"/><circle cx="600" cy="111" r="4.5" class="handle progress"/></g></g><g class="bar-wrapper estado-todo" data-id="g_90a6d90f_8671_4e91_95b3_9b2c4b821985"><g class="bar-group"><rect x="600" y="145" width="200" height="36" rx="3" ry="3" class="bar"><animate attributeName="width" from="0" to="200" dur="0.4s" begin="0.1s" calcMode="spline" values="0;200" keyTimes="0; 1" keySplines="0 0 .58 1"/></rect><rect x="600" y="145" width="40" height="36" rx="5" ry="5" class="bar-progress"><animate attributeName="width" from="0" to="40" dur="0.4s" begin="0.1s" calcMode="spline" values="0;40" keyTimes="0; 1" keySplines="0 0 .58 1"/></rect><text x="805" y="163" class="bar-label big">Levantar requerimientos de negocio [Float: 91d]</text></g><g class="handle-group"><rect x="798.5" y="154" width="3" height="18" rx="2" ry="2" class="handle right"/><rect x="598.5" y="154" width="3" height="18" rx="2" ry="2" class="handle left"/><circle cx="640" cy="163" r="4.5" class="handle progress"/></g></g><g class="bar-wrapper estado-todo" data-id="g_85b0b8c6_4123_44cc_9ab7_bb9ec82222fa"><g class="bar-group"><rect x="600" y="197" width="240" height="36" rx="3" ry="3" class="bar"><animate attributeName="width" from="0" to="240" dur="0.4s" begin="0.1s" calcMode="spline" values="0;240" keyTimes="0; 1" keySplines="0 0 .58 1"/></rect><rect x="600" y="197" width="0" height="36" rx="5" ry="5" class="bar-progress"><animate attributeName="width" from="0" to="0" dur="0.4s" begin="0.1s" calcMode="spline" values="0;0" keyTimes="0; 1" keySplines="0 0 .58 1"/></rect><text x="845" y="215" class="bar-label big">Contratar consultoria especializada ERP [Float: 110d]</text></g><g class="handle-group"><rect x="838.5" y="206" width="3" height="18" rx="2" ry="2" class="handle right"/><rect x="598.5" y="206" width="3" height="18" rx="2" ry="2" class="handle left"/><circle cx="600" cy="215" r="4.5" class="handle progress"/></g></g><g class="bar-wrapper estado-todo" data-id="g_e9524b71_77b2_44ec_89c0_a72f5ff5353d"><g class="bar-group"><rect x="600" y="249" width="240" height="36" rx="3" ry="3" class="bar"><animate attributeName="width" from="0" to="240" dur="0.4s" begin="0.1s" calcMode="spline" values="0;240" keyTimes="0; 1" keySplines="0 0 .58 1"/></rect><rect x="600" y="249" width="0" height="36" rx="5" ry="5" class="bar-progress"><animate attributeName="width" from="0" to="0" dur="0.4s" begin="0.1s" calcMode="spline" values="0;0" keyTimes="0; 1" keySplines="0 0 .58 1"/></rect><text x="845" y="267" class="bar-label big">Desarrollar dashboards y reportes gerenciales [Float: 110d]</text></g><g class="handle-group"><rect x="838.5" y="258" width="3" height="18" rx="2" ry="2" class="handle right"/><rect x="598.5" y="258" width="3" height="18" rx="2" ry="2" class="handle left"/><circle cx="600" cy="267" r="4.5" class="handle progress"/></g></g><g class="bar-wrapper estado-blocked" data-id="g_1ffcd67d_397a_46e0_a6a9_66c4430a71f2"><g class="bar-group"><rect x="600" y="301" width="240" height="36" rx="3" ry="3" class="bar"><animate attributeName="width" from="0" to="240" dur="0.4s" begin="0.1s" calcMode="spline" values="0;240" keyTimes="0; 1" keySplines="0 0 .58 1"/></rect><rect x="600" y="301" width="0" height="36" rx="5" ry="5" class="bar-progress"><animate attributeName="width" from="0" to="0" dur="0.4s" begin="0.1s" calcMode="spline" values="0;0" keyTimes="0; 1" keySplines="0 0 .58 1"/></rect><text x="845" y="319" class="bar-label big">Desarrollar modulo Ventas e Inventario [Float: 98d]</text></g><g class="handle-group"><rect x="838.5" y="310" width="3" height="18" rx="2" ry="2" class="handle right"/><rect x="598.5" y="310" width="3" height="18" rx="2" ry="2" class="handle left"/><circle cx="600" cy="319" r="4.5" class="handle progress"/></g></g><g class="bar-wrapper estado-todo" data-id="g_7dd3ba48_5de6_4071_b5da_aaca24b1a586"><g class="bar-group"><rect x="740" y="353" width="100" height="36" rx="3" ry="3" class="bar"><animate attributeName="width" from="0" to="100" dur="0.4s" begin="0.1s" calcMode="spline" values="0;100" keyTimes="0; 1" keySplines="0 0 .58 1"/></rect><rect x="740" y="353" width="0" height="36" rx="5" ry="5" class="bar-progress"><animate attributeName="width" from="0" to="0" dur="0.4s" begin="0.1s" calcMode="spline" values="0;0" keyTimes="0; 1" keySplines="0 0 .58 1"/></rect><text x="845" y="371" class="bar-label big">Ejecutar testing y QA modulo Ventas [Float: 98d]</text></g><g class="handle-group"><rect x="838.5" y="362" width="3" height="18" rx="2" ry="2" class="handle right"/><rect x="738.5" y="362" width="3" height="18" rx="2" ry="2" class="handle left"/><circle cx="740" cy="371" r="4.5" class="handle progress"/></g></g><g class="bar-wrapper estado-todo" data-id="g_a35fcd20_0ec0_474a_a51b_3c03a35a4230"><g class="bar-group"><rect x="600" y="405" width="260" height="36" rx="3" ry="3" class="bar"><animate attributeName="width" from="0" to="260" dur="0.4s" begin="0.1s" calcMode="spline" values="0;260" keyTimes="0; 1" keySplines="0 0 .58 1"/></rect><rect x="600" y="405" width="0" height="36" rx="5" ry="5" class="bar-progress"><animate attributeName="width" from="0" to="0" dur="0.4s" begin="0.1s" calcMode="spline" values="0;0" keyTimes="0; 1" keySplines="0 0 .58 1"/></rect><text x="865" y="423" class="bar-label big">Ejecutar pruebas de aceptacion de usuario [Float: 94d]</text></g><g class="handle-group"><rect x="858.5" y="414" width="3" height="18" rx="2" ry="2" class="handle right"/><rect x="598.5" y="414" width="3" height="18" rx="2" ry="2" class="handle left"/><circle cx="600" cy="423" r="4.5" class="handle progress"/></g></g><g class="bar-wrapper estado-todo" data-id="g_1a6ebeb1_e482_4203_bd47_972504fd6388"><g class="bar-group"><rect x="780" y="457" width="220" height="36" rx="3" ry="3" class="bar"><animate attributeName="width" from="0" to="220" dur="0.4s" begin="0.1s" calcMode="spline" values="0;220" keyTimes="0; 1" keySplines="0 0 .58 1"/></rect><rect x="780" y="457" width="0" height="36" rx="5" ry="5" class="bar-progress"><animate attributeName="width" from="0" to="0" dur="0.4s" begin="0.1s" calcMode="spline" values="0;0" keyTimes="0; 1" keySplines="0 0 .58 1"/></rect><text x="1005" y="475" class="bar-label big">Disenar arquitectura del sistema [Float: 91d]</text></g><g class="handle-group"><rect x="998.5" y="466" width="3" height="18" rx="2" ry="2" class="handle right"/><rect x="778.5" y="466" width="3" height="18" rx="2" ry="2" class="handle left"/><circle cx="780" cy="475" r="4.5" class="handle progress"/></g></g><g class="bar-wrapper estado-todo" data-id="g_84c2e52a_f119_45a5_ba4d_509d2797fff9"><g class="bar-group"><rect x="840" y="509" width="240" height="36" rx="3" ry="3" class="bar"><animate attributeName="width" from="0" to="240" dur="0.4s" begin="0.1s" calcMode="spline" values="0;240" keyTimes="0; 1" keySplines="0 0 .58 1"/></rect><rect x="840" y="509" width="0" height="36" rx="5" ry="5" class="bar-progress"><animate attributeName="width" from="0" to="0" dur="0.4s" begin="0.1s" calcMode="spline" values="0;0" keyTimes="0; 1" keySplines="0 0 .58 1"/></rect><text x="850.88671875" y="527" class="bar-label">Capacitar usuarios finales [Float: 94d]</text></g><g class="handle-group"><rect x="1078.5" y="518" width="3" height="18" rx="2" ry="2" class="handle right"/><rect x="838.5" y="518" width="3" height="18" rx="2" ry="2" class="handle left"/><circle cx="840" cy="527" r="4.5" class="handle progress"/></g></g><g class="bar-wrapper estado-todo" data-id="g_ff1494b5_96a6_42db_a7b2_9b1298c039a5"><g class="bar-group"><rect x="840" y="561" width="240" height="36" rx="3" ry="3" class="bar"><animate attributeName="width" from="0" to="240" dur="0.4s" begin="0.1s" calcMode="spline" values="0;240" keyTimes="0; 1" keySplines="0 0 .58 1"/></rect><rect x="840" y="561" width="0" height="36" rx="5" ry="5" class="bar-progress"><animate attributeName="width" from="0" to="0" dur="0.4s" begin="0.1s" calcMode="spline" values="0;0" keyTimes="0; 1" keySplines="0 0 .58 1"/></rect><text x="841.125" y="579" class="bar-label">Integrar sistema con Saiopen [Float: 98d]</text></g><g class="handle-group"><rect x="1078.5" y="570" width="3" height="18" rx="2" ry="2" class="handle right"/><rect x="838.5" y="570" width="3" height="18" rx="2" ry="2" class="handle left"/><circle cx="840" cy="579" r="4.5" class="handle progress"/></g></g><g class="bar-wrapper estado-todo" data-id="g_f1c64a4d_2454_43d4_b66f_97e87cfc2a70"><g class="bar-group"><rect x="1080" y="613" width="80" height="36" rx="3" ry="3" class="bar"><animate attributeName="width" from="0" to="80" dur="0.4s" begin="0.1s" calcMode="spline" values="0;80" keyTimes="0; 1" keySplines="0 0 .58 1"/></rect><rect x="1080" y="613" width="0" height="36" rx="5" ry="5" class="bar-progress"><animate attributeName="width" from="0" to="0" dur="0.4s" begin="0.1s" calcMode="spline" values="0;0" keyTimes="0; 1" keySplines="0 0 .58 1"/></rect><text x="1165" y="631" class="bar-label big">Firmar acta de liquidacion del proyecto [Float: 94d]</text></g><g class="handle-group"><rect x="1158.5" y="622" width="3" height="18" rx="2" ry="2" class="handle right"/><rect x="1078.5" y="622" width="3" height="18" rx="2" ry="2" class="handle left"/><circle cx="1080" cy="631" r="4.5" class="handle progress"/></g></g><g class="bar-wrapper estado-todo" data-id="g_a1d2a8b6_fefd_4997_b165_efea6a3a452b"><g class="bar-group"><rect x="980" y="665" width="220" height="36" rx="3" ry="3" class="bar"><animate attributeName="width" from="0" to="220" dur="0.4s" begin="0.1s" calcMode="spline" values="0;220" keyTimes="0; 1" keySplines="0 0 .58 1"/></rect><rect x="980" y="665" width="0" height="36" rx="5" ry="5" class="bar-progress"><animate attributeName="width" from="0" to="0" dur="0.4s" begin="0.1s" calcMode="spline" values="0;0" keyTimes="0; 1" keySplines="0 0 .58 1"/></rect><text x="1205" y="683" class="bar-label big">Desarrollar modulo backend de Compras [Float: 91d]</text></g><g class="handle-group"><rect x="1198.5" y="674" width="3" height="18" rx="2" ry="2" class="handle right"/><rect x="978.5" y="674" width="3" height="18" rx="2" ry="2" class="handle left"/><circle cx="980" cy="683" r="4.5" class="handle progress"/></g></g><g class="bar-wrapper estado-todo" data-id="g_361ddeb6_4fa0_4f28_ba8f_b0f72d41c494"><g class="bar-group"><rect x="1020" y="717" width="200" height="36" rx="3" ry="3" class="bar"><animate attributeName="width" from="0" to="200" dur="0.4s" begin="0.1s" calcMode="spline" values="0;200" keyTimes="0; 1" keySplines="0 0 .58 1"/></rect><rect x="1020" y="717" width="0" height="36" rx="5" ry="5" class="bar-progress"><animate attributeName="width" from="0" to="0" dur="0.4s" begin="0.1s" calcMode="spline" values="0;0" keyTimes="0; 1" keySplines="0 0 .58 1"/></rect><text x="1225" y="735" class="bar-label big">Desarrollar modulo frontend de Compras [Float: 91d]</text></g><g class="handle-group"><rect x="1218.5" y="726" width="3" height="18" rx="2" ry="2" class="handle right"/><rect x="1018.5" y="726" width="3" height="18" rx="2" ry="2" class="handle left"/><circle cx="1020" cy="735" r="4.5" class="handle progress"/></g></g><g class="bar-wrapper estado-todo critical-task" data-id="g_8028c46b_3945_4cd2_b524_eb3d24cefa16"><g class="bar-group"><rect x="600" y="769" width="2440" height="36" rx="3" ry="3" class="bar"><animate attributeName="width" from="0" to="2440" dur="0.4s" begin="0.1s" calcMode="spline" values="0;2440" keyTimes="0; 1" keySplines="0 0 .58 1"/></rect><rect x="600" y="769" width="0" height="36" rx="5" ry="5" class="bar-progress"><animate attributeName="width" from="0" to="0" dur="0.4s" begin="0.1s" calcMode="spline" values="0;0" keyTimes="0; 1" keySplines="0 0 .58 1"/></rect><text x="1694.1640625" y="787" class="bar-label">Aprovisionar servidor cloud AWS [CRÍTICA]</text></g><g class="handle-group"><rect x="3038.5" y="778" width="3" height="18" rx="2" ry="2" class="handle right"/><rect x="598.5" y="778" width="3" height="18" rx="2" ry="2" class="handle left"/><circle cx="600" cy="787" r="4.5" class="handle progress"/></g></g></g><rect x="0" y="0" width="3780" height="819" class="grid-background"/></svg>